<mxfile host="65bd71144e">
    <diagram id="-5QN2QgBkfXrOIuzFjtE" name="01 - screens">
        <mxGraphModel dx="442" dy="758" grid="1" gridSize="10" guides="1" tooltips="1" connect="1" arrows="1" fold="1" page="1" pageScale="1" pageWidth="3300" pageHeight="4681" math="0" shadow="0">
            <root>
                <mxCell id="0"/>
                <mxCell id="1" parent="0"/>
                <mxCell id="yYHpQ2OzpdTiHZJ_ZFZP-1" value="" style="verticalLabelPosition=bottom;verticalAlign=top;html=1;shadow=0;dashed=0;strokeWidth=1;shape=mxgraph.android.phone2;fillColor=#f5f5f5;strokeColor=#666666;fontColor=#333333;" parent="1" vertex="1">
                    <mxGeometry x="380" y="180" width="170" height="330" as="geometry"/>
                </mxCell>
                <mxCell id="yYHpQ2OzpdTiHZJ_ZFZP-2" value="" style="verticalLabelPosition=bottom;verticalAlign=top;html=1;shadow=0;dashed=0;strokeWidth=1;shape=mxgraph.android.phone2;fillColor=#f5f5f5;strokeColor=#666666;fontColor=#333333;" parent="1" vertex="1">
                    <mxGeometry x="640" y="180" width="170" height="330" as="geometry"/>
                </mxCell>
                <mxCell id="yYHpQ2OzpdTiHZJ_ZFZP-3" value="Search Screen" style="rounded=0;whiteSpace=wrap;html=1;fontSize=18;fillColor=#dae8fc;strokeColor=#6c8ebf;" parent="1" vertex="1">
                    <mxGeometry x="405" y="300" width="120" height="60" as="geometry"/>
                </mxCell>
                <mxCell id="yYHpQ2OzpdTiHZJ_ZFZP-4" value="Details Screen" style="rounded=0;whiteSpace=wrap;html=1;fontSize=18;fillColor=#dae8fc;strokeColor=#6c8ebf;" parent="1" vertex="1">
                    <mxGeometry x="665" y="300" width="120" height="60" as="geometry"/>
                </mxCell>
            </root>
        </mxGraphModel>
    </diagram>
    <diagram id="y01mFfFFY3VEMF5nSa8k" name="02 - nav">
        <mxGraphModel dx="442" dy="758" grid="1" gridSize="10" guides="1" tooltips="1" connect="1" arrows="1" fold="1" page="1" pageScale="1" pageWidth="3300" pageHeight="4681" math="0" shadow="0">
            <root>
                <mxCell id="ZC33BY-UTgGHyyvGFsQb-0"/>
                <mxCell id="ZC33BY-UTgGHyyvGFsQb-1" parent="ZC33BY-UTgGHyyvGFsQb-0"/>
                <mxCell id="ZC33BY-UTgGHyyvGFsQb-3" value="" style="verticalLabelPosition=bottom;verticalAlign=top;html=1;shadow=0;dashed=0;strokeWidth=1;shape=mxgraph.android.phone2;fillColor=#f5f5f5;strokeColor=#666666;fontColor=#333333;" parent="ZC33BY-UTgGHyyvGFsQb-1" vertex="1">
                    <mxGeometry x="640" y="150" width="200" height="340" as="geometry"/>
                </mxCell>
                <mxCell id="ZC33BY-UTgGHyyvGFsQb-4" value="" style="rounded=0;whiteSpace=wrap;html=1;" parent="ZC33BY-UTgGHyyvGFsQb-1" vertex="1">
                    <mxGeometry x="648" y="183" width="185" height="40" as="geometry"/>
                </mxCell>
                <mxCell id="ZC33BY-UTgGHyyvGFsQb-5" value="Home" style="text;html=1;strokeColor=none;fillColor=none;align=center;verticalAlign=middle;whiteSpace=wrap;rounded=0;" parent="ZC33BY-UTgGHyyvGFsQb-1" vertex="1">
                    <mxGeometry x="720" y="193" width="40" height="20" as="geometry"/>
                </mxCell>
                <mxCell id="ZC33BY-UTgGHyyvGFsQb-6" value="" style="endArrow=none;html=1;" parent="ZC33BY-UTgGHyyvGFsQb-1" edge="1">
                    <mxGeometry width="50" height="50" relative="1" as="geometry">
                        <mxPoint x="657" y="198" as="sourcePoint"/>
                        <mxPoint x="677" y="198" as="targetPoint"/>
                    </mxGeometry>
                </mxCell>
                <mxCell id="ZC33BY-UTgGHyyvGFsQb-7" value="" style="endArrow=none;html=1;" parent="ZC33BY-UTgGHyyvGFsQb-1" edge="1">
                    <mxGeometry width="50" height="50" relative="1" as="geometry">
                        <mxPoint x="657" y="203" as="sourcePoint"/>
                        <mxPoint x="677" y="203" as="targetPoint"/>
                    </mxGeometry>
                </mxCell>
                <mxCell id="ZC33BY-UTgGHyyvGFsQb-8" value="" style="endArrow=none;html=1;" parent="ZC33BY-UTgGHyyvGFsQb-1" edge="1">
                    <mxGeometry width="50" height="50" relative="1" as="geometry">
                        <mxPoint x="657" y="208" as="sourcePoint"/>
                        <mxPoint x="677" y="208" as="targetPoint"/>
                    </mxGeometry>
                </mxCell>
                <mxCell id="ZC33BY-UTgGHyyvGFsQb-9" value="Welcome!" style="text;html=1;strokeColor=none;fillColor=none;align=left;verticalAlign=middle;whiteSpace=wrap;rounded=0;fontSize=19;" parent="ZC33BY-UTgGHyyvGFsQb-1" vertex="1">
                    <mxGeometry x="660" y="240" width="110" height="20" as="geometry"/>
                </mxCell>
                <mxCell id="ZC33BY-UTgGHyyvGFsQb-10" value="This app has a variety of examples on how to use state" style="text;html=1;strokeColor=none;fillColor=none;align=left;verticalAlign=middle;whiteSpace=wrap;rounded=0;" parent="ZC33BY-UTgGHyyvGFsQb-1" vertex="1">
                    <mxGeometry x="660" y="280" width="170" height="20" as="geometry"/>
                </mxCell>
                <mxCell id="ZC33BY-UTgGHyyvGFsQb-11" value="" style="rounded=0;whiteSpace=wrap;html=1;fontSize=19;align=left;" parent="ZC33BY-UTgGHyyvGFsQb-1" vertex="1">
                    <mxGeometry x="648" y="183" width="122" height="277" as="geometry"/>
                </mxCell>
                <mxCell id="ZC33BY-UTgGHyyvGFsQb-12" value="Home" style="text;html=1;strokeColor=none;fillColor=none;align=left;verticalAlign=middle;whiteSpace=wrap;rounded=0;fontSize=19;" parent="ZC33BY-UTgGHyyvGFsQb-1" vertex="1">
                    <mxGeometry x="670" y="200" width="90" height="20" as="geometry"/>
                </mxCell>
                <mxCell id="ZC33BY-UTgGHyyvGFsQb-13" value="Text" style="text;html=1;strokeColor=none;fillColor=none;align=left;verticalAlign=middle;whiteSpace=wrap;rounded=0;fontSize=19;" parent="ZC33BY-UTgGHyyvGFsQb-1" vertex="1">
                    <mxGeometry x="670" y="232" width="90" height="20" as="geometry"/>
                </mxCell>
                <mxCell id="ZC33BY-UTgGHyyvGFsQb-14" value="API Demo" style="text;html=1;strokeColor=none;fillColor=none;align=left;verticalAlign=middle;whiteSpace=wrap;rounded=0;fontSize=19;" parent="ZC33BY-UTgGHyyvGFsQb-1" vertex="1">
                    <mxGeometry x="670" y="263" width="90" height="20" as="geometry"/>
                </mxCell>
                <mxCell id="ZC33BY-UTgGHyyvGFsQb-15" value="Picker" style="text;html=1;strokeColor=none;fillColor=none;align=left;verticalAlign=middle;whiteSpace=wrap;rounded=0;fontSize=19;" parent="ZC33BY-UTgGHyyvGFsQb-1" vertex="1">
                    <mxGeometry x="670" y="295" width="90" height="20" as="geometry"/>
                </mxCell>
                <mxCell id="ZC33BY-UTgGHyyvGFsQb-16" value="Icons" style="text;html=1;strokeColor=none;fillColor=none;align=left;verticalAlign=middle;whiteSpace=wrap;rounded=0;fontSize=19;" parent="ZC33BY-UTgGHyyvGFsQb-1" vertex="1">
                    <mxGeometry x="670" y="326" width="90" height="20" as="geometry"/>
                </mxCell>
                <mxCell id="ZC33BY-UTgGHyyvGFsQb-17" value="" style="verticalLabelPosition=bottom;verticalAlign=top;html=1;shadow=0;dashed=0;strokeWidth=1;shape=mxgraph.android.phone2;fillColor=#f5f5f5;strokeColor=#666666;fontColor=#333333;" parent="ZC33BY-UTgGHyyvGFsQb-1" vertex="1">
                    <mxGeometry x="860" y="151.5" width="200" height="340" as="geometry"/>
                </mxCell>
                <mxCell id="ZC33BY-UTgGHyyvGFsQb-18" value="" style="rounded=0;whiteSpace=wrap;html=1;" parent="ZC33BY-UTgGHyyvGFsQb-1" vertex="1">
                    <mxGeometry x="868" y="184.5" width="185" height="40" as="geometry"/>
                </mxCell>
                <mxCell id="ZC33BY-UTgGHyyvGFsQb-19" value="Home" style="text;html=1;strokeColor=none;fillColor=none;align=center;verticalAlign=middle;whiteSpace=wrap;rounded=0;" parent="ZC33BY-UTgGHyyvGFsQb-1" vertex="1">
                    <mxGeometry x="940" y="194.5" width="40" height="20" as="geometry"/>
                </mxCell>
                <mxCell id="ZC33BY-UTgGHyyvGFsQb-20" value="" style="endArrow=none;html=1;" parent="ZC33BY-UTgGHyyvGFsQb-1" edge="1">
                    <mxGeometry width="50" height="50" relative="1" as="geometry">
                        <mxPoint x="877" y="199.5" as="sourcePoint"/>
                        <mxPoint x="897" y="199.5" as="targetPoint"/>
                    </mxGeometry>
                </mxCell>
                <mxCell id="ZC33BY-UTgGHyyvGFsQb-21" value="" style="endArrow=none;html=1;" parent="ZC33BY-UTgGHyyvGFsQb-1" edge="1">
                    <mxGeometry width="50" height="50" relative="1" as="geometry">
                        <mxPoint x="877" y="204.5" as="sourcePoint"/>
                        <mxPoint x="897" y="204.5" as="targetPoint"/>
                    </mxGeometry>
                </mxCell>
                <mxCell id="ZC33BY-UTgGHyyvGFsQb-22" value="" style="endArrow=none;html=1;" parent="ZC33BY-UTgGHyyvGFsQb-1" edge="1">
                    <mxGeometry width="50" height="50" relative="1" as="geometry">
                        <mxPoint x="877" y="209.5" as="sourcePoint"/>
                        <mxPoint x="897" y="209.5" as="targetPoint"/>
                    </mxGeometry>
                </mxCell>
                <mxCell id="ZC33BY-UTgGHyyvGFsQb-23" value="Welcome!" style="text;html=1;strokeColor=none;fillColor=none;align=left;verticalAlign=middle;whiteSpace=wrap;rounded=0;fontSize=19;" parent="ZC33BY-UTgGHyyvGFsQb-1" vertex="1">
                    <mxGeometry x="880" y="241.5" width="110" height="20" as="geometry"/>
                </mxCell>
                <mxCell id="ZC33BY-UTgGHyyvGFsQb-24" value="This app has a variety of examples on how to use state" style="text;html=1;strokeColor=none;fillColor=none;align=left;verticalAlign=middle;whiteSpace=wrap;rounded=0;" parent="ZC33BY-UTgGHyyvGFsQb-1" vertex="1">
                    <mxGeometry x="880" y="281.5" width="170" height="20" as="geometry"/>
                </mxCell>
                <mxCell id="ZC33BY-UTgGHyyvGFsQb-25" value="" style="rounded=0;whiteSpace=wrap;html=1;fontSize=19;align=left;" parent="ZC33BY-UTgGHyyvGFsQb-1" vertex="1">
                    <mxGeometry x="869" y="430" width="182" height="32" as="geometry"/>
                </mxCell>
                <mxCell id="ZC33BY-UTgGHyyvGFsQb-26" value="Home" style="text;html=1;strokeColor=none;fillColor=none;align=center;verticalAlign=middle;whiteSpace=wrap;rounded=0;fontSize=14;" parent="ZC33BY-UTgGHyyvGFsQb-1" vertex="1">
                    <mxGeometry x="880" y="436" width="40" height="20" as="geometry"/>
                </mxCell>
                <mxCell id="ZC33BY-UTgGHyyvGFsQb-27" value="Icons" style="text;html=1;strokeColor=none;fillColor=none;align=center;verticalAlign=middle;whiteSpace=wrap;rounded=0;fontSize=14;" parent="ZC33BY-UTgGHyyvGFsQb-1" vertex="1">
                    <mxGeometry x="940.5" y="436" width="40" height="20" as="geometry"/>
                </mxCell>
                <mxCell id="ZC33BY-UTgGHyyvGFsQb-28" value="Picker" style="text;html=1;strokeColor=none;fillColor=none;align=center;verticalAlign=middle;whiteSpace=wrap;rounded=0;fontSize=14;" parent="ZC33BY-UTgGHyyvGFsQb-1" vertex="1">
                    <mxGeometry x="1000" y="436" width="40" height="20" as="geometry"/>
                </mxCell>
                <mxCell id="ZC33BY-UTgGHyyvGFsQb-29" value="" style="verticalLabelPosition=bottom;verticalAlign=top;html=1;shadow=0;dashed=0;strokeWidth=1;shape=mxgraph.android.phone2;fillColor=#f5f5f5;strokeColor=#666666;fontColor=#333333;" parent="ZC33BY-UTgGHyyvGFsQb-1" vertex="1">
                    <mxGeometry x="1080" y="150" width="200" height="340" as="geometry"/>
                </mxCell>
                <mxCell id="ZC33BY-UTgGHyyvGFsQb-30" value="" style="rounded=0;whiteSpace=wrap;html=1;" parent="ZC33BY-UTgGHyyvGFsQb-1" vertex="1">
                    <mxGeometry x="1088" y="183" width="185" height="40" as="geometry"/>
                </mxCell>
                <mxCell id="ZC33BY-UTgGHyyvGFsQb-31" value="Home" style="text;html=1;strokeColor=none;fillColor=none;align=center;verticalAlign=middle;whiteSpace=wrap;rounded=0;" parent="ZC33BY-UTgGHyyvGFsQb-1" vertex="1">
                    <mxGeometry x="1160" y="193" width="40" height="20" as="geometry"/>
                </mxCell>
                <mxCell id="ZC33BY-UTgGHyyvGFsQb-32" value="Welcome!" style="text;html=1;strokeColor=none;fillColor=none;align=left;verticalAlign=middle;whiteSpace=wrap;rounded=0;fontSize=19;" parent="ZC33BY-UTgGHyyvGFsQb-1" vertex="1">
                    <mxGeometry x="1100" y="240" width="110" height="20" as="geometry"/>
                </mxCell>
                <mxCell id="ZC33BY-UTgGHyyvGFsQb-33" value="This app has a variety of examples on how to use state" style="text;html=1;strokeColor=none;fillColor=none;align=left;verticalAlign=middle;whiteSpace=wrap;rounded=0;" parent="ZC33BY-UTgGHyyvGFsQb-1" vertex="1">
                    <mxGeometry x="1100" y="280" width="170" height="20" as="geometry"/>
                </mxCell>
                <mxCell id="ZC33BY-UTgGHyyvGFsQb-34" value="Tap Here to Show Icons" style="rounded=0;whiteSpace=wrap;html=1;fontSize=14;align=center;" parent="ZC33BY-UTgGHyyvGFsQb-1" vertex="1">
                    <mxGeometry x="1095" y="316" width="170" height="34" as="geometry"/>
                </mxCell>
                <mxCell id="ZC33BY-UTgGHyyvGFsQb-35" value="" style="verticalLabelPosition=bottom;verticalAlign=top;html=1;shadow=0;dashed=0;strokeWidth=1;shape=mxgraph.android.phone2;fillColor=#f5f5f5;strokeColor=#666666;fontColor=#333333;" parent="ZC33BY-UTgGHyyvGFsQb-1" vertex="1">
                    <mxGeometry x="1290" y="151.5" width="200" height="340" as="geometry"/>
                </mxCell>
                <mxCell id="ZC33BY-UTgGHyyvGFsQb-36" value="" style="rounded=0;whiteSpace=wrap;html=1;" parent="ZC33BY-UTgGHyyvGFsQb-1" vertex="1">
                    <mxGeometry x="1298" y="184.5" width="185" height="40" as="geometry"/>
                </mxCell>
                <mxCell id="ZC33BY-UTgGHyyvGFsQb-37" value="Icons" style="text;html=1;strokeColor=none;fillColor=none;align=center;verticalAlign=middle;whiteSpace=wrap;rounded=0;" parent="ZC33BY-UTgGHyyvGFsQb-1" vertex="1">
                    <mxGeometry x="1370" y="194.5" width="40" height="20" as="geometry"/>
                </mxCell>
                <mxCell id="ZC33BY-UTgGHyyvGFsQb-38" value="List of icons" style="text;html=1;strokeColor=none;fillColor=none;align=left;verticalAlign=middle;whiteSpace=wrap;rounded=0;fontSize=19;" parent="ZC33BY-UTgGHyyvGFsQb-1" vertex="1">
                    <mxGeometry x="1310" y="241.5" width="110" height="20" as="geometry"/>
                </mxCell>
                <mxCell id="ZC33BY-UTgGHyyvGFsQb-39" value="" style="shape=flexArrow;endArrow=classic;html=1;fontSize=14;" parent="ZC33BY-UTgGHyyvGFsQb-1" edge="1">
                    <mxGeometry width="50" height="50" relative="1" as="geometry">
                        <mxPoint x="1350" y="204" as="sourcePoint"/>
                        <mxPoint x="1310" y="204" as="targetPoint"/>
                    </mxGeometry>
                </mxCell>
                <mxCell id="ZC33BY-UTgGHyyvGFsQb-40" value="Drawer Navigator" style="rounded=0;whiteSpace=wrap;html=1;fontSize=18;align=center;fillColor=#dae8fc;strokeColor=#6c8ebf;fontStyle=1" parent="ZC33BY-UTgGHyyvGFsQb-1" vertex="1">
                    <mxGeometry x="650" y="500" width="180" height="50" as="geometry"/>
                </mxCell>
                <mxCell id="ZC33BY-UTgGHyyvGFsQb-41" value="BottomTabNavigator" style="rounded=0;whiteSpace=wrap;html=1;fontSize=18;align=center;fillColor=#dae8fc;strokeColor=#6c8ebf;fontStyle=1" parent="ZC33BY-UTgGHyyvGFsQb-1" vertex="1">
                    <mxGeometry x="865" y="500" width="191" height="50" as="geometry"/>
                </mxCell>
                <mxCell id="ZC33BY-UTgGHyyvGFsQb-42" value="StackNavigator" style="rounded=0;whiteSpace=wrap;html=1;fontSize=18;align=center;fillColor=#dae8fc;strokeColor=#6c8ebf;fontStyle=1" parent="ZC33BY-UTgGHyyvGFsQb-1" vertex="1">
                    <mxGeometry x="1080" y="500" width="410" height="50" as="geometry"/>
                </mxCell>
            </root>
        </mxGraphModel>
    </diagram>
    <diagram id="IlctxkB-OkfVy026fJYa" name="03 - search">
        <mxGraphModel dx="442" dy="758" grid="1" gridSize="10" guides="1" tooltips="1" connect="1" arrows="1" fold="1" page="1" pageScale="1" pageWidth="3300" pageHeight="4681" math="0" shadow="0">
            <root>
                <mxCell id="9GU6Ag5i20Xlu16L0dzQ-0"/>
                <mxCell id="9GU6Ag5i20Xlu16L0dzQ-1" parent="9GU6Ag5i20Xlu16L0dzQ-0"/>
                <mxCell id="9GU6Ag5i20Xlu16L0dzQ-2" value="" style="verticalLabelPosition=bottom;verticalAlign=top;html=1;shadow=0;dashed=0;strokeWidth=1;shape=mxgraph.android.phone2;fontSize=18;fillColor=#f5f5f5;strokeColor=#666666;fontColor=#333333;" parent="9GU6Ag5i20Xlu16L0dzQ-1" vertex="1">
                    <mxGeometry x="380" y="85" width="200" height="390" as="geometry"/>
                </mxCell>
                <mxCell id="9GU6Ag5i20Xlu16L0dzQ-3" value="" style="rounded=0;whiteSpace=wrap;html=1;fontSize=18;" parent="9GU6Ag5i20Xlu16L0dzQ-1" vertex="1">
                    <mxGeometry x="400" y="165" width="160" height="30" as="geometry"/>
                </mxCell>
                <mxCell id="9GU6Ag5i20Xlu16L0dzQ-4" value="Business Search" style="text;html=1;strokeColor=none;fillColor=none;align=center;verticalAlign=middle;whiteSpace=wrap;rounded=0;fontSize=18;" parent="9GU6Ag5i20Xlu16L0dzQ-1" vertex="1">
                    <mxGeometry x="405" y="125" width="150" height="20" as="geometry"/>
                </mxCell>
                <mxCell id="9GU6Ag5i20Xlu16L0dzQ-5" value="" style="pointerEvents=1;shadow=0;dashed=0;html=1;strokeColor=none;fillColor=#505050;labelPosition=center;verticalLabelPosition=bottom;verticalAlign=top;outlineConnect=0;align=center;shape=mxgraph.office.concepts.search;fontSize=18;" parent="9GU6Ag5i20Xlu16L0dzQ-1" vertex="1">
                    <mxGeometry x="405" y="170" width="15" height="20" as="geometry"/>
                </mxCell>
                <mxCell id="9GU6Ag5i20Xlu16L0dzQ-6" value="search term" style="text;html=1;strokeColor=none;fillColor=none;align=left;verticalAlign=middle;whiteSpace=wrap;rounded=0;fontSize=18;" parent="9GU6Ag5i20Xlu16L0dzQ-1" vertex="1">
                    <mxGeometry x="430" y="170" width="100" height="20" as="geometry"/>
                </mxCell>
                <mxCell id="9GU6Ag5i20Xlu16L0dzQ-8" value="Cheap" style="rounded=0;whiteSpace=wrap;html=1;fontSize=18;align=left;fillColor=#f5f5f5;strokeColor=#666666;fontColor=#333333;" parent="9GU6Ag5i20Xlu16L0dzQ-1" vertex="1">
                    <mxGeometry x="400" y="215" width="160" height="60" as="geometry"/>
                </mxCell>
                <mxCell id="9GU6Ag5i20Xlu16L0dzQ-9" value="Medium" style="rounded=0;whiteSpace=wrap;html=1;fontSize=18;align=left;fillColor=#f5f5f5;strokeColor=#666666;fontColor=#333333;" parent="9GU6Ag5i20Xlu16L0dzQ-1" vertex="1">
                    <mxGeometry x="400" y="285" width="160" height="60" as="geometry"/>
                </mxCell>
                <mxCell id="9GU6Ag5i20Xlu16L0dzQ-10" value="Expensive" style="rounded=0;whiteSpace=wrap;html=1;fontSize=18;align=left;fillColor=#f5f5f5;strokeColor=#666666;fontColor=#333333;" parent="9GU6Ag5i20Xlu16L0dzQ-1" vertex="1">
                    <mxGeometry x="400" y="365" width="160" height="60" as="geometry"/>
                </mxCell>
                <mxCell id="9GU6Ag5i20Xlu16L0dzQ-11" value="" style="rounded=1;whiteSpace=wrap;html=1;fontSize=18;align=left;fillColor=none;strokeColor=#6c8ebf;strokeWidth=4;dashed=1;dashPattern=1 1;" parent="9GU6Ag5i20Xlu16L0dzQ-1" vertex="1">
                    <mxGeometry x="391" y="155" width="178" height="50" as="geometry"/>
                </mxCell>
                <mxCell id="9GU6Ag5i20Xlu16L0dzQ-12" value="" style="rounded=1;whiteSpace=wrap;html=1;fontSize=18;align=left;fillColor=none;strokeColor=#6c8ebf;strokeWidth=4;dashed=1;dashPattern=1 1;" parent="9GU6Ag5i20Xlu16L0dzQ-1" vertex="1">
                    <mxGeometry x="391" y="210" width="179" height="70" as="geometry"/>
                </mxCell>
                <mxCell id="9GU6Ag5i20Xlu16L0dzQ-13" value="" style="rounded=1;whiteSpace=wrap;html=1;fontSize=18;align=left;fillColor=none;strokeColor=#6c8ebf;strokeWidth=4;dashed=1;dashPattern=1 1;" parent="9GU6Ag5i20Xlu16L0dzQ-1" vertex="1">
                    <mxGeometry x="390" y="280" width="179" height="70" as="geometry"/>
                </mxCell>
                <mxCell id="9GU6Ag5i20Xlu16L0dzQ-14" value="" style="rounded=1;whiteSpace=wrap;html=1;fontSize=18;align=left;fillColor=none;strokeColor=#6c8ebf;strokeWidth=4;dashed=1;dashPattern=1 1;" parent="9GU6Ag5i20Xlu16L0dzQ-1" vertex="1">
                    <mxGeometry x="390.5" y="360" width="179" height="70" as="geometry"/>
                </mxCell>
                <mxCell id="9GU6Ag5i20Xlu16L0dzQ-17" style="edgeStyle=orthogonalEdgeStyle;rounded=0;orthogonalLoop=1;jettySize=auto;html=1;exitX=0;exitY=0.5;exitDx=0;exitDy=0;entryX=1;entryY=0.5;entryDx=0;entryDy=0;fontSize=18;" parent="9GU6Ag5i20Xlu16L0dzQ-1" source="9GU6Ag5i20Xlu16L0dzQ-15" target="9GU6Ag5i20Xlu16L0dzQ-11" edge="1">
                    <mxGeometry relative="1" as="geometry"/>
                </mxCell>
                <mxCell id="9GU6Ag5i20Xlu16L0dzQ-15" value="SearchBar" style="rounded=0;whiteSpace=wrap;html=1;strokeWidth=1;fontSize=18;align=center;fillColor=#dae8fc;strokeColor=#6c8ebf;" parent="9GU6Ag5i20Xlu16L0dzQ-1" vertex="1">
                    <mxGeometry x="670" y="150" width="160" height="60" as="geometry"/>
                </mxCell>
                <mxCell id="9GU6Ag5i20Xlu16L0dzQ-18" style="edgeStyle=orthogonalEdgeStyle;rounded=0;orthogonalLoop=1;jettySize=auto;html=1;exitX=0;exitY=0.5;exitDx=0;exitDy=0;entryX=1;entryY=0.5;entryDx=0;entryDy=0;fontSize=18;" parent="9GU6Ag5i20Xlu16L0dzQ-1" source="9GU6Ag5i20Xlu16L0dzQ-16" target="9GU6Ag5i20Xlu16L0dzQ-12" edge="1">
                    <mxGeometry relative="1" as="geometry"/>
                </mxCell>
                <mxCell id="9GU6Ag5i20Xlu16L0dzQ-19" style="edgeStyle=orthogonalEdgeStyle;rounded=0;orthogonalLoop=1;jettySize=auto;html=1;exitX=0;exitY=0.5;exitDx=0;exitDy=0;entryX=1;entryY=0.5;entryDx=0;entryDy=0;fontSize=18;" parent="9GU6Ag5i20Xlu16L0dzQ-1" source="9GU6Ag5i20Xlu16L0dzQ-16" target="9GU6Ag5i20Xlu16L0dzQ-13" edge="1">
                    <mxGeometry relative="1" as="geometry"/>
                </mxCell>
                <mxCell id="9GU6Ag5i20Xlu16L0dzQ-20" style="edgeStyle=orthogonalEdgeStyle;rounded=0;orthogonalLoop=1;jettySize=auto;html=1;exitX=0;exitY=0.5;exitDx=0;exitDy=0;entryX=1;entryY=0.5;entryDx=0;entryDy=0;fontSize=18;" parent="9GU6Ag5i20Xlu16L0dzQ-1" source="9GU6Ag5i20Xlu16L0dzQ-16" target="9GU6Ag5i20Xlu16L0dzQ-14" edge="1">
                    <mxGeometry relative="1" as="geometry"/>
                </mxCell>
                <mxCell id="9GU6Ag5i20Xlu16L0dzQ-16" value="RestaurantList" style="rounded=0;whiteSpace=wrap;html=1;strokeWidth=1;fontSize=18;align=center;fillColor=#dae8fc;strokeColor=#6c8ebf;" parent="9GU6Ag5i20Xlu16L0dzQ-1" vertex="1">
                    <mxGeometry x="670" y="285" width="160" height="60" as="geometry"/>
                </mxCell>
            </root>
        </mxGraphModel>
    </diagram>
    <diagram id="q9oaR6H_eOfr7jEBnd-X" name="04 - icons">
        <mxGraphModel dx="1238" dy="758" grid="1" gridSize="10" guides="1" tooltips="1" connect="1" arrows="1" fold="1" page="1" pageScale="1" pageWidth="3300" pageHeight="4681" math="0" shadow="0">
            <root>
                <mxCell id="1vcqYn-NFLC8tsJTGYVd-0"/>
                <mxCell id="1vcqYn-NFLC8tsJTGYVd-1" parent="1vcqYn-NFLC8tsJTGYVd-0"/>
                <mxCell id="1vcqYn-NFLC8tsJTGYVd-2" value="github.com/expo/vector-icons" style="rounded=0;whiteSpace=wrap;html=1;strokeWidth=1;fontSize=18;align=center;fillColor=#dae8fc;strokeColor=#6c8ebf;fontStyle=1" parent="1vcqYn-NFLC8tsJTGYVd-1" vertex="1">
                    <mxGeometry x="480" y="270" width="370" height="60" as="geometry"/>
                </mxCell>
                <mxCell id="1vcqYn-NFLC8tsJTGYVd-3" value="Icons Listing" style="text;html=1;strokeColor=none;fillColor=none;align=center;verticalAlign=middle;whiteSpace=wrap;rounded=0;fontSize=18;" parent="1vcqYn-NFLC8tsJTGYVd-1" vertex="1">
                    <mxGeometry x="577.5" y="340" width="175" height="20" as="geometry"/>
                </mxCell>
            </root>
        </mxGraphModel>
    </diagram>
    <diagram id="9fEMlbiSM_cBFc84ZScT" name="05 - state">
        <mxGraphModel dx="1238" dy="758" grid="1" gridSize="10" guides="1" tooltips="1" connect="1" arrows="1" fold="1" page="1" pageScale="1" pageWidth="3300" pageHeight="4681" math="0" shadow="0">
            <root>
                <mxCell id="oPUpXZ5y8lxRdCC94mho-0"/>
                <mxCell id="oPUpXZ5y8lxRdCC94mho-1" parent="oPUpXZ5y8lxRdCC94mho-0"/>
                <mxCell id="oPUpXZ5y8lxRdCC94mho-4" style="edgeStyle=orthogonalEdgeStyle;rounded=0;orthogonalLoop=1;jettySize=auto;html=1;exitX=0.5;exitY=1;exitDx=0;exitDy=0;fontSize=18;" parent="oPUpXZ5y8lxRdCC94mho-1" source="oPUpXZ5y8lxRdCC94mho-2" target="oPUpXZ5y8lxRdCC94mho-3" edge="1">
                    <mxGeometry relative="1" as="geometry"/>
                </mxCell>
                <mxCell id="TykqbxBB8ATX9SvM3CBb-2" style="edgeStyle=orthogonalEdgeStyle;rounded=0;orthogonalLoop=1;jettySize=auto;html=1;exitX=0.5;exitY=1;exitDx=0;exitDy=0;fontSize=11;" parent="oPUpXZ5y8lxRdCC94mho-1" source="oPUpXZ5y8lxRdCC94mho-2" target="TykqbxBB8ATX9SvM3CBb-1" edge="1">
                    <mxGeometry relative="1" as="geometry">
                        <Array as="points">
                            <mxPoint x="520" y="230"/>
                            <mxPoint x="750" y="230"/>
                        </Array>
                    </mxGeometry>
                </mxCell>
                <mxCell id="TykqbxBB8ATX9SvM3CBb-6" style="edgeStyle=orthogonalEdgeStyle;rounded=0;orthogonalLoop=1;jettySize=auto;html=1;exitX=0.5;exitY=1;exitDx=0;exitDy=0;fontSize=11;" parent="oPUpXZ5y8lxRdCC94mho-1" source="oPUpXZ5y8lxRdCC94mho-2" target="TykqbxBB8ATX9SvM3CBb-4" edge="1">
                    <mxGeometry relative="1" as="geometry">
                        <Array as="points">
                            <mxPoint x="520" y="230"/>
                            <mxPoint x="290" y="230"/>
                        </Array>
                    </mxGeometry>
                </mxCell>
                <mxCell id="oPUpXZ5y8lxRdCC94mho-2" value="SquareScreen&lt;br&gt;&lt;br&gt;&lt;br&gt;" style="rounded=0;whiteSpace=wrap;html=1;strokeWidth=1;fillColor=#dae8fc;fontSize=18;align=center;strokeColor=#6c8ebf;" parent="oPUpXZ5y8lxRdCC94mho-1" vertex="1">
                    <mxGeometry x="420" y="130" width="200" height="70" as="geometry"/>
                </mxCell>
                <mxCell id="oPUpXZ5y8lxRdCC94mho-3" value="ColorCounter" style="rounded=0;whiteSpace=wrap;html=1;strokeWidth=1;fillColor=#dae8fc;fontSize=18;align=center;strokeColor=#6c8ebf;" parent="oPUpXZ5y8lxRdCC94mho-1" vertex="1">
                    <mxGeometry x="420" y="330" width="200" height="60" as="geometry"/>
                </mxCell>
                <mxCell id="TykqbxBB8ATX9SvM3CBb-0" value="red, green, blue" style="rounded=0;whiteSpace=wrap;html=1;strokeWidth=1;fontSize=11;align=center;fillColor=#e1d5e7;strokeColor=#9673a6;" parent="oPUpXZ5y8lxRdCC94mho-1" vertex="1">
                    <mxGeometry x="455" y="160" width="130" height="30" as="geometry"/>
                </mxCell>
                <mxCell id="TykqbxBB8ATX9SvM3CBb-1" value="ColorCounter" style="rounded=0;whiteSpace=wrap;html=1;strokeWidth=1;fillColor=#dae8fc;fontSize=18;align=center;strokeColor=#6c8ebf;" parent="oPUpXZ5y8lxRdCC94mho-1" vertex="1">
                    <mxGeometry x="650" y="330" width="200" height="60" as="geometry"/>
                </mxCell>
                <mxCell id="TykqbxBB8ATX9SvM3CBb-3" value="{ onIncrease, onDecrease }" style="rounded=0;whiteSpace=wrap;html=1;strokeWidth=1;fontSize=11;align=center;fillColor=#e1d5e7;strokeColor=#9673a6;" parent="oPUpXZ5y8lxRdCC94mho-1" vertex="1">
                    <mxGeometry x="750" y="250" width="90" height="30" as="geometry"/>
                </mxCell>
                <mxCell id="TykqbxBB8ATX9SvM3CBb-4" value="ColorCounter" style="rounded=0;whiteSpace=wrap;html=1;strokeWidth=1;fillColor=#dae8fc;fontSize=18;align=center;strokeColor=#6c8ebf;" parent="oPUpXZ5y8lxRdCC94mho-1" vertex="1">
                    <mxGeometry x="190" y="330" width="200" height="60" as="geometry"/>
                </mxCell>
                <mxCell id="TykqbxBB8ATX9SvM3CBb-5" value="{ onIncrease, onDecrease }" style="rounded=0;whiteSpace=wrap;html=1;strokeWidth=1;fontSize=11;align=center;fillColor=#e1d5e7;strokeColor=#9673a6;" parent="oPUpXZ5y8lxRdCC94mho-1" vertex="1">
                    <mxGeometry x="520" y="250" width="90" height="30" as="geometry"/>
                </mxCell>
                <mxCell id="TykqbxBB8ATX9SvM3CBb-7" value="{ onIncrease, onDecrease }" style="rounded=0;whiteSpace=wrap;html=1;strokeWidth=1;fontSize=11;align=center;fillColor=#e1d5e7;strokeColor=#9673a6;" parent="oPUpXZ5y8lxRdCC94mho-1" vertex="1">
                    <mxGeometry x="290" y="250" width="90" height="30" as="geometry"/>
                </mxCell>
            </root>
        </mxGraphModel>
    </diagram>
    <diagram name="06 - state" id="OpOn8dtiJmD7TUDmNbqe">
        <mxGraphModel dx="1238" dy="758" grid="1" gridSize="10" guides="1" tooltips="1" connect="1" arrows="1" fold="1" page="1" pageScale="1" pageWidth="3300" pageHeight="4681" math="0" shadow="0">
            <root>
                <mxCell id="mDxYZsUaUfFKFounPKFJ-0"/>
                <mxCell id="mDxYZsUaUfFKFounPKFJ-1" parent="mDxYZsUaUfFKFounPKFJ-0"/>
                <mxCell id="mDxYZsUaUfFKFounPKFJ-2" style="edgeStyle=orthogonalEdgeStyle;rounded=0;orthogonalLoop=1;jettySize=auto;html=1;exitX=0.5;exitY=1;exitDx=0;exitDy=0;fontSize=18;" parent="mDxYZsUaUfFKFounPKFJ-1" source="mDxYZsUaUfFKFounPKFJ-3" target="mDxYZsUaUfFKFounPKFJ-4" edge="1">
                    <mxGeometry relative="1" as="geometry"/>
                </mxCell>
                <mxCell id="mDxYZsUaUfFKFounPKFJ-3" value="SearchScreen&lt;br&gt;&lt;br&gt;&lt;br&gt;" style="rounded=0;whiteSpace=wrap;html=1;strokeWidth=1;fillColor=#dae8fc;fontSize=18;align=center;strokeColor=#6c8ebf;" parent="mDxYZsUaUfFKFounPKFJ-1" vertex="1">
                    <mxGeometry x="420" y="120" width="200" height="80" as="geometry"/>
                </mxCell>
                <mxCell id="mDxYZsUaUfFKFounPKFJ-4" value="SearchBar" style="rounded=0;whiteSpace=wrap;html=1;strokeWidth=1;fillColor=#dae8fc;fontSize=18;align=center;strokeColor=#6c8ebf;" parent="mDxYZsUaUfFKFounPKFJ-1" vertex="1">
                    <mxGeometry x="420" y="330" width="200" height="60" as="geometry"/>
                </mxCell>
                <mxCell id="mDxYZsUaUfFKFounPKFJ-5" value="searchTerm" style="rounded=0;whiteSpace=wrap;html=1;strokeWidth=1;fontSize=11;align=center;fillColor=#e1d5e7;strokeColor=#9673a6;" parent="mDxYZsUaUfFKFounPKFJ-1" vertex="1">
                    <mxGeometry x="445" y="160" width="150" height="30" as="geometry"/>
                </mxCell>
                <mxCell id="QaX5qCNnX4l4yDfBvwga-0" value="value, onChange" style="rounded=0;whiteSpace=wrap;html=1;strokeWidth=1;fontSize=11;align=center;fillColor=#e1d5e7;strokeColor=#9673a6;" parent="mDxYZsUaUfFKFounPKFJ-1" vertex="1">
                    <mxGeometry x="520" y="245" width="150" height="30" as="geometry"/>
                </mxCell>
            </root>
        </mxGraphModel>
    </diagram>
    <diagram name="10 - flow" id="PsdUFvzxJgKgbHiYcyIS">
        <mxGraphModel dx="1238" dy="758" grid="1" gridSize="10" guides="1" tooltips="1" connect="1" arrows="1" fold="1" page="1" pageScale="1" pageWidth="3300" pageHeight="4681" math="0" shadow="0">
            <root>
                <mxCell id="DqLSejpunYZSFW55nj3N-0"/>
                <mxCell id="DqLSejpunYZSFW55nj3N-1" parent="DqLSejpunYZSFW55nj3N-0"/>
                <mxCell id="DqLSejpunYZSFW55nj3N-2" value="SearchScreen function called" style="rounded=0;whiteSpace=wrap;html=1;fillColor=#dae8fc;strokeColor=#6c8ebf;" parent="DqLSejpunYZSFW55nj3N-1" vertex="1">
                    <mxGeometry x="550" y="210" width="340" height="30" as="geometry"/>
                </mxCell>
                <mxCell id="DqLSejpunYZSFW55nj3N-3" value="Nothing visible on screen!" style="rounded=0;whiteSpace=wrap;html=1;fillColor=#dae8fc;strokeColor=#6c8ebf;" parent="DqLSejpunYZSFW55nj3N-1" vertex="1">
                    <mxGeometry x="550" y="250" width="340" height="30" as="geometry"/>
                </mxCell>
                <mxCell id="DqLSejpunYZSFW55nj3N-4" value="User enters a search term, submits it, request to Yelp made" style="rounded=0;whiteSpace=wrap;html=1;fillColor=#dae8fc;strokeColor=#6c8ebf;" parent="DqLSejpunYZSFW55nj3N-1" vertex="1">
                    <mxGeometry x="550" y="290" width="340" height="30" as="geometry"/>
                </mxCell>
                <mxCell id="DqLSejpunYZSFW55nj3N-5" value="Get search results, call setter" style="rounded=0;whiteSpace=wrap;html=1;fillColor=#dae8fc;strokeColor=#6c8ebf;" parent="DqLSejpunYZSFW55nj3N-1" vertex="1">
                    <mxGeometry x="550" y="330" width="340" height="30" as="geometry"/>
                </mxCell>
                <mxCell id="DqLSejpunYZSFW55nj3N-7" value="Updated state causes component to rerender" style="rounded=0;whiteSpace=wrap;html=1;fillColor=#dae8fc;strokeColor=#6c8ebf;" parent="DqLSejpunYZSFW55nj3N-1" vertex="1">
                    <mxGeometry x="550" y="370" width="340" height="30" as="geometry"/>
                </mxCell>
                <mxCell id="DqLSejpunYZSFW55nj3N-8" value="" style="endArrow=classic;html=1;" parent="DqLSejpunYZSFW55nj3N-1" edge="1">
                    <mxGeometry width="50" height="50" relative="1" as="geometry">
                        <mxPoint x="540" y="210" as="sourcePoint"/>
                        <mxPoint x="540" y="440" as="targetPoint"/>
                    </mxGeometry>
                </mxCell>
                <mxCell id="DqLSejpunYZSFW55nj3N-9" value="Flow in SearchScreen Component" style="text;html=1;strokeColor=none;fillColor=none;align=center;verticalAlign=middle;whiteSpace=wrap;rounded=0;fontSize=15;fontStyle=1" parent="DqLSejpunYZSFW55nj3N-1" vertex="1">
                    <mxGeometry x="630" y="180" width="180" height="20" as="geometry"/>
                </mxCell>
                <mxCell id="1k_cuI9ny0snk0OHgl34-0" value="Now we have something to show to the user!" style="rounded=0;whiteSpace=wrap;html=1;fillColor=#dae8fc;strokeColor=#6c8ebf;" parent="DqLSejpunYZSFW55nj3N-1" vertex="1">
                    <mxGeometry x="550" y="410" width="340" height="30" as="geometry"/>
                </mxCell>
            </root>
        </mxGraphModel>
    </diagram>
    <diagram name="09 - flow" id="V_Hh-dK7lejZnJYeh9Av">
        <mxGraphModel dx="1238" dy="758" grid="1" gridSize="10" guides="1" tooltips="1" connect="1" arrows="1" fold="1" page="1" pageScale="1" pageWidth="3300" pageHeight="4681" math="0" shadow="0">
            <root>
                <mxCell id="zsUA5YoBISk6IAHHZW44-0"/>
                <mxCell id="zsUA5YoBISk6IAHHZW44-1" parent="zsUA5YoBISk6IAHHZW44-0"/>
                <mxCell id="zsUA5YoBISk6IAHHZW44-2" value="SearchScreen function called" style="rounded=0;whiteSpace=wrap;html=1;fillColor=#dae8fc;strokeColor=#6c8ebf;" parent="zsUA5YoBISk6IAHHZW44-1" vertex="1">
                    <mxGeometry x="550" y="210" width="340" height="30" as="geometry"/>
                </mxCell>
                <mxCell id="zsUA5YoBISk6IAHHZW44-3" value="searchApi called immediately" style="rounded=0;whiteSpace=wrap;html=1;fillColor=#dae8fc;strokeColor=#6c8ebf;" parent="zsUA5YoBISk6IAHHZW44-1" vertex="1">
                    <mxGeometry x="550" y="250" width="340" height="30" as="geometry"/>
                </mxCell>
                <mxCell id="zsUA5YoBISk6IAHHZW44-4" value="Make request to yelp API" style="rounded=0;whiteSpace=wrap;html=1;fillColor=#dae8fc;strokeColor=#6c8ebf;" parent="zsUA5YoBISk6IAHHZW44-1" vertex="1">
                    <mxGeometry x="550" y="290" width="340" height="30" as="geometry"/>
                </mxCell>
                <mxCell id="zsUA5YoBISk6IAHHZW44-5" value="Get search results, call setter" style="rounded=0;whiteSpace=wrap;html=1;fillColor=#dae8fc;strokeColor=#6c8ebf;" parent="zsUA5YoBISk6IAHHZW44-1" vertex="1">
                    <mxGeometry x="550" y="330" width="340" height="30" as="geometry"/>
                </mxCell>
                <mxCell id="ETvJtrekjBS_d7Vllt-q-0" style="edgeStyle=orthogonalEdgeStyle;rounded=0;orthogonalLoop=1;jettySize=auto;html=1;exitX=1;exitY=0.5;exitDx=0;exitDy=0;entryX=1;entryY=0.5;entryDx=0;entryDy=0;fontSize=23;" parent="zsUA5YoBISk6IAHHZW44-1" source="zsUA5YoBISk6IAHHZW44-7" target="zsUA5YoBISk6IAHHZW44-2" edge="1">
                    <mxGeometry relative="1" as="geometry">
                        <Array as="points">
                            <mxPoint x="940" y="385"/>
                            <mxPoint x="940" y="225"/>
                        </Array>
                    </mxGeometry>
                </mxCell>
                <mxCell id="zsUA5YoBISk6IAHHZW44-7" value="Updated state causes component to rerender" style="rounded=0;whiteSpace=wrap;html=1;fillColor=#dae8fc;strokeColor=#6c8ebf;" parent="zsUA5YoBISk6IAHHZW44-1" vertex="1">
                    <mxGeometry x="550" y="370" width="340" height="30" as="geometry"/>
                </mxCell>
                <mxCell id="zsUA5YoBISk6IAHHZW44-8" value="" style="endArrow=classic;html=1;" parent="zsUA5YoBISk6IAHHZW44-1" edge="1">
                    <mxGeometry width="50" height="50" relative="1" as="geometry">
                        <mxPoint x="540" y="210" as="sourcePoint"/>
                        <mxPoint x="540" y="400" as="targetPoint"/>
                    </mxGeometry>
                </mxCell>
                <mxCell id="zsUA5YoBISk6IAHHZW44-9" value="Flow in SearchScreen Component" style="text;html=1;strokeColor=none;fillColor=none;align=center;verticalAlign=middle;whiteSpace=wrap;rounded=0;fontSize=15;fontStyle=1" parent="zsUA5YoBISk6IAHHZW44-1" vertex="1">
                    <mxGeometry x="630" y="180" width="180" height="20" as="geometry"/>
                </mxCell>
            </root>
        </mxGraphModel>
    </diagram>
    <diagram id="qoOLP4i2NyIHlehctPpD" name="08 - useEffect">
        <mxGraphModel dx="1238" dy="758" grid="1" gridSize="10" guides="1" tooltips="1" connect="1" arrows="1" fold="1" page="1" pageScale="1" pageWidth="3300" pageHeight="4681" math="0" shadow="0">
            <root>
                <mxCell id="51RElr2scgk2fWhCrWo8-0"/>
                <mxCell id="51RElr2scgk2fWhCrWo8-1" parent="51RElr2scgk2fWhCrWo8-0"/>
                <mxCell id="51RElr2scgk2fWhCrWo8-5" style="edgeStyle=orthogonalEdgeStyle;rounded=0;orthogonalLoop=1;jettySize=auto;html=1;exitX=1;exitY=0.5;exitDx=0;exitDy=0;fontSize=18;" parent="51RElr2scgk2fWhCrWo8-1" source="51RElr2scgk2fWhCrWo8-2" target="51RElr2scgk2fWhCrWo8-4" edge="1">
                    <mxGeometry relative="1" as="geometry"/>
                </mxCell>
                <mxCell id="51RElr2scgk2fWhCrWo8-2" value="useEffect(() =&amp;gt; {})" style="rounded=0;whiteSpace=wrap;html=1;fontSize=18;fillColor=#dae8fc;strokeColor=#6c8ebf;" parent="51RElr2scgk2fWhCrWo8-1" vertex="1">
                    <mxGeometry x="440" y="190" width="270" height="60" as="geometry"/>
                </mxCell>
                <mxCell id="51RElr2scgk2fWhCrWo8-4" value="Run the arrow function &lt;b&gt;&lt;i&gt;every time&lt;/i&gt;&lt;/b&gt;&amp;nbsp;the component is rendered" style="rounded=0;whiteSpace=wrap;html=1;fontSize=18;" parent="51RElr2scgk2fWhCrWo8-1" vertex="1">
                    <mxGeometry x="770" y="190" width="430" height="60" as="geometry"/>
                </mxCell>
                <mxCell id="51RElr2scgk2fWhCrWo8-6" style="edgeStyle=orthogonalEdgeStyle;rounded=0;orthogonalLoop=1;jettySize=auto;html=1;exitX=1;exitY=0.5;exitDx=0;exitDy=0;fontSize=18;" parent="51RElr2scgk2fWhCrWo8-1" source="51RElr2scgk2fWhCrWo8-7" target="51RElr2scgk2fWhCrWo8-8" edge="1">
                    <mxGeometry relative="1" as="geometry"/>
                </mxCell>
                <mxCell id="51RElr2scgk2fWhCrWo8-7" value="useEffect(() =&amp;gt; {}, [&amp;nbsp; ])" style="rounded=0;whiteSpace=wrap;html=1;fontSize=18;fillColor=#dae8fc;strokeColor=#6c8ebf;" parent="51RElr2scgk2fWhCrWo8-1" vertex="1">
                    <mxGeometry x="440" y="260" width="270" height="60" as="geometry"/>
                </mxCell>
                <mxCell id="51RElr2scgk2fWhCrWo8-8" value="Run the arrow function &lt;b&gt;&lt;i&gt;only&lt;/i&gt;&lt;/b&gt; when the component is &lt;b&gt;&lt;i&gt;first&lt;/i&gt;&lt;/b&gt; rendered" style="rounded=0;whiteSpace=wrap;html=1;fontSize=18;" parent="51RElr2scgk2fWhCrWo8-1" vertex="1">
                    <mxGeometry x="770" y="260" width="430" height="60" as="geometry"/>
                </mxCell>
                <mxCell id="51RElr2scgk2fWhCrWo8-9" style="edgeStyle=orthogonalEdgeStyle;rounded=0;orthogonalLoop=1;jettySize=auto;html=1;exitX=1;exitY=0.5;exitDx=0;exitDy=0;fontSize=18;" parent="51RElr2scgk2fWhCrWo8-1" source="51RElr2scgk2fWhCrWo8-10" target="51RElr2scgk2fWhCrWo8-11" edge="1">
                    <mxGeometry relative="1" as="geometry"/>
                </mxCell>
                <mxCell id="51RElr2scgk2fWhCrWo8-10" value="useEffect(() =&amp;gt; {}, [value])" style="rounded=0;whiteSpace=wrap;html=1;fontSize=18;fillColor=#dae8fc;strokeColor=#6c8ebf;" parent="51RElr2scgk2fWhCrWo8-1" vertex="1">
                    <mxGeometry x="440" y="330" width="270" height="60" as="geometry"/>
                </mxCell>
                <mxCell id="51RElr2scgk2fWhCrWo8-11" value="Run the arrow function &lt;b&gt;&lt;i&gt;only&lt;/i&gt;&lt;/b&gt; when the component is &lt;b&gt;&lt;i&gt;first&lt;/i&gt;&lt;/b&gt; rendered, &lt;i style=&quot;font-weight: bold&quot;&gt;and &lt;/i&gt;when the '&lt;b&gt;&lt;i&gt;value'&lt;/i&gt;&amp;nbsp;&lt;i&gt;changes&lt;/i&gt;&lt;/b&gt;" style="rounded=0;whiteSpace=wrap;html=1;fontSize=18;" parent="51RElr2scgk2fWhCrWo8-1" vertex="1">
                    <mxGeometry x="770" y="330" width="430" height="60" as="geometry"/>
                </mxCell>
                <mxCell id="51RElr2scgk2fWhCrWo8-12" value="UseEffect Second Argument" style="text;html=1;strokeColor=none;fillColor=none;align=center;verticalAlign=middle;whiteSpace=wrap;rounded=0;fontSize=23;fontStyle=1" parent="51RElr2scgk2fWhCrWo8-1" vertex="1">
                    <mxGeometry x="660" y="140" width="410" height="30" as="geometry"/>
                </mxCell>
            </root>
        </mxGraphModel>
    </diagram>
    <diagram id="yfxUSoqmYAU2Vawn-Y-2" name="07 - flow">
        <mxGraphModel dx="691" dy="328" grid="1" gridSize="10" guides="1" tooltips="1" connect="1" arrows="1" fold="1" page="1" pageScale="1" pageWidth="3300" pageHeight="4681" math="0" shadow="0">
            <root>
                <mxCell id="yCyY6b-BawFg-GSghnNY-0"/>
                <mxCell id="yCyY6b-BawFg-GSghnNY-1" parent="yCyY6b-BawFg-GSghnNY-0"/>
                <mxCell id="yCyY6b-BawFg-GSghnNY-2" value="SearchScreen function called" style="rounded=0;whiteSpace=wrap;html=1;fillColor=#dae8fc;strokeColor=#6c8ebf;" vertex="1" parent="yCyY6b-BawFg-GSghnNY-1">
                    <mxGeometry x="550" y="210" width="340" height="30" as="geometry"/>
                </mxCell>
                <mxCell id="yCyY6b-BawFg-GSghnNY-4" value="UseEffect function ran" style="rounded=0;whiteSpace=wrap;html=1;fillColor=#dae8fc;strokeColor=#6c8ebf;" vertex="1" parent="yCyY6b-BawFg-GSghnNY-1">
                    <mxGeometry x="550" y="250" width="340" height="30" as="geometry"/>
                </mxCell>
                <mxCell id="yCyY6b-BawFg-GSghnNY-5" value="Make request to yelp API" style="rounded=0;whiteSpace=wrap;html=1;fillColor=#dae8fc;strokeColor=#6c8ebf;" vertex="1" parent="yCyY6b-BawFg-GSghnNY-1">
                    <mxGeometry x="550" y="290" width="340" height="30" as="geometry"/>
                </mxCell>
                <mxCell id="yCyY6b-BawFg-GSghnNY-6" value="Get search results, call setter" style="rounded=0;whiteSpace=wrap;html=1;fillColor=#dae8fc;strokeColor=#6c8ebf;" vertex="1" parent="yCyY6b-BawFg-GSghnNY-1">
                    <mxGeometry x="550" y="330" width="340" height="30" as="geometry"/>
                </mxCell>
                <mxCell id="yCyY6b-BawFg-GSghnNY-9" style="edgeStyle=orthogonalEdgeStyle;rounded=0;orthogonalLoop=1;jettySize=auto;html=1;exitX=1;exitY=0.5;exitDx=0;exitDy=0;entryX=1;entryY=0.5;entryDx=0;entryDy=0;" edge="1" parent="yCyY6b-BawFg-GSghnNY-1" source="yCyY6b-BawFg-GSghnNY-7" target="yCyY6b-BawFg-GSghnNY-4">
                    <mxGeometry relative="1" as="geometry">
                        <Array as="points">
                            <mxPoint x="920" y="385"/>
                            <mxPoint x="920" y="265"/>
                        </Array>
                    </mxGeometry>
                </mxCell>
                <mxCell id="yCyY6b-BawFg-GSghnNY-7" value="Updated state causes component to rerender" style="rounded=0;whiteSpace=wrap;html=1;fillColor=#dae8fc;strokeColor=#6c8ebf;" vertex="1" parent="yCyY6b-BawFg-GSghnNY-1">
                    <mxGeometry x="550" y="370" width="340" height="30" as="geometry"/>
                </mxCell>
                <mxCell id="yCyY6b-BawFg-GSghnNY-10" value="" style="endArrow=classic;html=1;" edge="1" parent="yCyY6b-BawFg-GSghnNY-1">
                    <mxGeometry width="50" height="50" relative="1" as="geometry">
                        <mxPoint x="540" y="210" as="sourcePoint"/>
                        <mxPoint x="540" y="400" as="targetPoint"/>
                    </mxGeometry>
                </mxCell>
                <mxCell id="yCyY6b-BawFg-GSghnNY-11" value="Flow in SearchScreen Component" style="text;html=1;strokeColor=none;fillColor=none;align=center;verticalAlign=middle;whiteSpace=wrap;rounded=0;fontSize=15;fontStyle=1" vertex="1" parent="yCyY6b-BawFg-GSghnNY-1">
                    <mxGeometry x="630" y="180" width="180" height="20" as="geometry"/>
                </mxCell>
            </root>
        </mxGraphModel>
    </diagram>
    <diagram id="YMq4L-cR9XHqsGIOnsJw" name="11 - list">
        <mxGraphModel dx="1381" dy="655" grid="1" gridSize="10" guides="1" tooltips="1" connect="1" arrows="1" fold="1" page="1" pageScale="1" pageWidth="3300" pageHeight="4681" math="0" shadow="0">
            <root>
                <mxCell id="4PiA8mN9tsmujIbxWF_A-0"/>
                <mxCell id="4PiA8mN9tsmujIbxWF_A-1" parent="4PiA8mN9tsmujIbxWF_A-0"/>
                <mxCell id="4PiA8mN9tsmujIbxWF_A-2" value="" style="verticalLabelPosition=bottom;verticalAlign=top;html=1;shadow=0;dashed=0;strokeWidth=1;shape=mxgraph.android.phone2;fillColor=#f5f5f5;strokeColor=#666666;fontSize=23;fontColor=#333333;" vertex="1" parent="4PiA8mN9tsmujIbxWF_A-1">
                    <mxGeometry x="390" y="120" width="200" height="390" as="geometry"/>
                </mxCell>
            </root>
        </mxGraphModel>
    </diagram>
    <diagram id="Q-l8iYlvwLCxnGEXd2i4" name="12 - where">
        <mxGraphModel dx="699" dy="328" grid="1" gridSize="10" guides="1" tooltips="1" connect="1" arrows="1" fold="1" page="1" pageScale="1" pageWidth="3300" pageHeight="4681" math="0" shadow="0">
            <root>
                <mxCell id="BRDX0VDvkrpZ8G0s5WdJ-0"/>
                <mxCell id="BRDX0VDvkrpZ8G0s5WdJ-1" parent="BRDX0VDvkrpZ8G0s5WdJ-0"/>
                <mxCell id="BRDX0VDvkrpZ8G0s5WdJ-2" style="edgeStyle=orthogonalEdgeStyle;rounded=0;orthogonalLoop=1;jettySize=auto;html=1;exitX=0.5;exitY=1;exitDx=0;exitDy=0;fontSize=18;" edge="1" parent="BRDX0VDvkrpZ8G0s5WdJ-1" source="BRDX0VDvkrpZ8G0s5WdJ-3" target="BRDX0VDvkrpZ8G0s5WdJ-4">
                    <mxGeometry relative="1" as="geometry">
                        <Array as="points">
                            <mxPoint x="520" y="230"/>
                            <mxPoint x="290" y="230"/>
                        </Array>
                    </mxGeometry>
                </mxCell>
                <mxCell id="BRDX0VDvkrpZ8G0s5WdJ-10" style="edgeStyle=orthogonalEdgeStyle;rounded=0;orthogonalLoop=1;jettySize=auto;html=1;exitX=0.5;exitY=1;exitDx=0;exitDy=0;fontSize=23;" edge="1" parent="BRDX0VDvkrpZ8G0s5WdJ-1" source="BRDX0VDvkrpZ8G0s5WdJ-3" target="BRDX0VDvkrpZ8G0s5WdJ-9">
                    <mxGeometry relative="1" as="geometry"/>
                </mxCell>
                <mxCell id="BRDX0VDvkrpZ8G0s5WdJ-14" style="edgeStyle=orthogonalEdgeStyle;rounded=0;orthogonalLoop=1;jettySize=auto;html=1;exitX=0.5;exitY=1;exitDx=0;exitDy=0;entryX=0.5;entryY=0;entryDx=0;entryDy=0;fontSize=23;" edge="1" parent="BRDX0VDvkrpZ8G0s5WdJ-1" source="BRDX0VDvkrpZ8G0s5WdJ-3" target="BRDX0VDvkrpZ8G0s5WdJ-13">
                    <mxGeometry relative="1" as="geometry">
                        <Array as="points">
                            <mxPoint x="520" y="230"/>
                            <mxPoint x="750" y="230"/>
                        </Array>
                    </mxGeometry>
                </mxCell>
                <mxCell id="BRDX0VDvkrpZ8G0s5WdJ-3" value="SearchScreen&lt;br&gt;&lt;br&gt;re" style="rounded=0;whiteSpace=wrap;html=1;strokeWidth=1;fillColor=#dae8fc;fontSize=18;align=center;strokeColor=#6c8ebf;" vertex="1" parent="BRDX0VDvkrpZ8G0s5WdJ-1">
                    <mxGeometry x="420" y="120" width="200" height="80" as="geometry"/>
                </mxCell>
                <mxCell id="BRDX0VDvkrpZ8G0s5WdJ-4" value="ResultsList" style="rounded=0;whiteSpace=wrap;html=1;strokeWidth=1;fillColor=#dae8fc;fontSize=18;align=center;strokeColor=#6c8ebf;" vertex="1" parent="BRDX0VDvkrpZ8G0s5WdJ-1">
                    <mxGeometry x="190" y="330" width="200" height="60" as="geometry"/>
                </mxCell>
                <mxCell id="BRDX0VDvkrpZ8G0s5WdJ-5" value="results" style="rounded=0;whiteSpace=wrap;html=1;strokeWidth=1;fontSize=11;align=center;fillColor=#e1d5e7;strokeColor=#9673a6;" vertex="1" parent="BRDX0VDvkrpZ8G0s5WdJ-1">
                    <mxGeometry x="445" y="160" width="150" height="30" as="geometry"/>
                </mxCell>
                <mxCell id="BRDX0VDvkrpZ8G0s5WdJ-8" value="results with '$'" style="rounded=0;whiteSpace=wrap;html=1;strokeWidth=1;fontSize=11;align=center;fillColor=#e1d5e7;strokeColor=#9673a6;" vertex="1" parent="BRDX0VDvkrpZ8G0s5WdJ-1">
                    <mxGeometry x="290" y="260" width="90" height="30" as="geometry"/>
                </mxCell>
                <mxCell id="BRDX0VDvkrpZ8G0s5WdJ-9" value="ResultsList" style="rounded=0;whiteSpace=wrap;html=1;strokeWidth=1;fillColor=#dae8fc;fontSize=18;align=center;strokeColor=#6c8ebf;" vertex="1" parent="BRDX0VDvkrpZ8G0s5WdJ-1">
                    <mxGeometry x="420" y="330" width="200" height="60" as="geometry"/>
                </mxCell>
                <mxCell id="BRDX0VDvkrpZ8G0s5WdJ-11" value="results with '$$'" style="rounded=0;whiteSpace=wrap;html=1;strokeWidth=1;fontSize=11;align=center;fillColor=#e1d5e7;strokeColor=#9673a6;" vertex="1" parent="BRDX0VDvkrpZ8G0s5WdJ-1">
                    <mxGeometry x="520" y="260" width="90" height="30" as="geometry"/>
                </mxCell>
                <mxCell id="BRDX0VDvkrpZ8G0s5WdJ-13" value="ResultsList" style="rounded=0;whiteSpace=wrap;html=1;strokeWidth=1;fillColor=#dae8fc;fontSize=18;align=center;strokeColor=#6c8ebf;" vertex="1" parent="BRDX0VDvkrpZ8G0s5WdJ-1">
                    <mxGeometry x="650" y="330" width="200" height="60" as="geometry"/>
                </mxCell>
                <mxCell id="BRDX0VDvkrpZ8G0s5WdJ-15" value="results with '$$$'" style="rounded=0;whiteSpace=wrap;html=1;strokeWidth=1;fontSize=11;align=center;fillColor=#e1d5e7;strokeColor=#9673a6;" vertex="1" parent="BRDX0VDvkrpZ8G0s5WdJ-1">
                    <mxGeometry x="750" y="260" width="90" height="30" as="geometry"/>
                </mxCell>
                <mxCell id="BRDX0VDvkrpZ8G0s5WdJ-16" value="Option #1 - Do grouping in SearchScreen" style="rounded=0;whiteSpace=wrap;html=1;strokeWidth=1;fillColor=#f8cecc;fontSize=18;align=center;strokeColor=#b85450;" vertex="1" parent="BRDX0VDvkrpZ8G0s5WdJ-1">
                    <mxGeometry x="170" y="115" width="200" height="60" as="geometry"/>
                </mxCell>
            </root>
        </mxGraphModel>
    </diagram>
    <diagram name="13 - where" id="DAvr-j0OKcIKrtuD-qze">
        <mxGraphModel dx="699" dy="328" grid="1" gridSize="10" guides="1" tooltips="1" connect="1" arrows="1" fold="1" page="1" pageScale="1" pageWidth="3300" pageHeight="4681" math="0" shadow="0">
            <root>
                <mxCell id="yD9sD2X17rfTI40Z9vV2-0"/>
                <mxCell id="yD9sD2X17rfTI40Z9vV2-1" parent="yD9sD2X17rfTI40Z9vV2-0"/>
                <mxCell id="yD9sD2X17rfTI40Z9vV2-2" style="edgeStyle=orthogonalEdgeStyle;rounded=0;orthogonalLoop=1;jettySize=auto;html=1;exitX=0.5;exitY=1;exitDx=0;exitDy=0;fontSize=18;" edge="1" parent="yD9sD2X17rfTI40Z9vV2-1" source="yD9sD2X17rfTI40Z9vV2-5" target="yD9sD2X17rfTI40Z9vV2-6">
                    <mxGeometry relative="1" as="geometry">
                        <Array as="points">
                            <mxPoint x="520" y="230"/>
                            <mxPoint x="290" y="230"/>
                        </Array>
                    </mxGeometry>
                </mxCell>
                <mxCell id="yD9sD2X17rfTI40Z9vV2-3" style="edgeStyle=orthogonalEdgeStyle;rounded=0;orthogonalLoop=1;jettySize=auto;html=1;exitX=0.5;exitY=1;exitDx=0;exitDy=0;fontSize=23;" edge="1" parent="yD9sD2X17rfTI40Z9vV2-1" source="yD9sD2X17rfTI40Z9vV2-5" target="yD9sD2X17rfTI40Z9vV2-9">
                    <mxGeometry relative="1" as="geometry"/>
                </mxCell>
                <mxCell id="yD9sD2X17rfTI40Z9vV2-4" style="edgeStyle=orthogonalEdgeStyle;rounded=0;orthogonalLoop=1;jettySize=auto;html=1;exitX=0.5;exitY=1;exitDx=0;exitDy=0;entryX=0.5;entryY=0;entryDx=0;entryDy=0;fontSize=23;" edge="1" parent="yD9sD2X17rfTI40Z9vV2-1" source="yD9sD2X17rfTI40Z9vV2-5" target="yD9sD2X17rfTI40Z9vV2-11">
                    <mxGeometry relative="1" as="geometry">
                        <Array as="points">
                            <mxPoint x="520" y="230"/>
                            <mxPoint x="750" y="230"/>
                        </Array>
                    </mxGeometry>
                </mxCell>
                <mxCell id="yD9sD2X17rfTI40Z9vV2-5" value="SearchScreen&lt;br&gt;&lt;br&gt;re" style="rounded=0;whiteSpace=wrap;html=1;strokeWidth=1;fillColor=#dae8fc;fontSize=18;align=center;strokeColor=#6c8ebf;" vertex="1" parent="yD9sD2X17rfTI40Z9vV2-1">
                    <mxGeometry x="420" y="120" width="200" height="80" as="geometry"/>
                </mxCell>
                <mxCell id="yD9sD2X17rfTI40Z9vV2-6" value="ResultsList" style="rounded=0;whiteSpace=wrap;html=1;strokeWidth=1;fillColor=#dae8fc;fontSize=18;align=center;strokeColor=#6c8ebf;" vertex="1" parent="yD9sD2X17rfTI40Z9vV2-1">
                    <mxGeometry x="190" y="330" width="200" height="60" as="geometry"/>
                </mxCell>
                <mxCell id="yD9sD2X17rfTI40Z9vV2-7" value="results" style="rounded=0;whiteSpace=wrap;html=1;strokeWidth=1;fontSize=11;align=center;fillColor=#e1d5e7;strokeColor=#9673a6;" vertex="1" parent="yD9sD2X17rfTI40Z9vV2-1">
                    <mxGeometry x="445" y="160" width="150" height="30" as="geometry"/>
                </mxCell>
                <mxCell id="yD9sD2X17rfTI40Z9vV2-8" value="results" style="rounded=0;whiteSpace=wrap;html=1;strokeWidth=1;fontSize=11;align=center;fillColor=#e1d5e7;strokeColor=#9673a6;" vertex="1" parent="yD9sD2X17rfTI40Z9vV2-1">
                    <mxGeometry x="290" y="245" width="90" height="30" as="geometry"/>
                </mxCell>
                <mxCell id="yD9sD2X17rfTI40Z9vV2-9" value="ResultsList" style="rounded=0;whiteSpace=wrap;html=1;strokeWidth=1;fillColor=#dae8fc;fontSize=18;align=center;strokeColor=#6c8ebf;" vertex="1" parent="yD9sD2X17rfTI40Z9vV2-1">
                    <mxGeometry x="420" y="330" width="200" height="60" as="geometry"/>
                </mxCell>
                <mxCell id="yD9sD2X17rfTI40Z9vV2-11" value="ResultsList" style="rounded=0;whiteSpace=wrap;html=1;strokeWidth=1;fillColor=#dae8fc;fontSize=18;align=center;strokeColor=#6c8ebf;" vertex="1" parent="yD9sD2X17rfTI40Z9vV2-1">
                    <mxGeometry x="650" y="330" width="200" height="60" as="geometry"/>
                </mxCell>
                <mxCell id="yD9sD2X17rfTI40Z9vV2-13" value="Option #2 - Do grouping in each ResultsList" style="rounded=0;whiteSpace=wrap;html=1;strokeWidth=1;fillColor=#f8cecc;fontSize=18;align=center;strokeColor=#b85450;" vertex="1" parent="yD9sD2X17rfTI40Z9vV2-1">
                    <mxGeometry x="170" y="115" width="200" height="60" as="geometry"/>
                </mxCell>
                <mxCell id="yD9sD2X17rfTI40Z9vV2-14" value="Please show '$'" style="rounded=0;whiteSpace=wrap;html=1;strokeWidth=1;fontSize=11;align=center;fillColor=#e1d5e7;strokeColor=#9673a6;" vertex="1" parent="yD9sD2X17rfTI40Z9vV2-1">
                    <mxGeometry x="290" y="275" width="90" height="30" as="geometry"/>
                </mxCell>
                <mxCell id="yD9sD2X17rfTI40Z9vV2-15" value="results" style="rounded=0;whiteSpace=wrap;html=1;strokeWidth=1;fontSize=11;align=center;fillColor=#e1d5e7;strokeColor=#9673a6;" vertex="1" parent="yD9sD2X17rfTI40Z9vV2-1">
                    <mxGeometry x="520" y="245" width="90" height="30" as="geometry"/>
                </mxCell>
                <mxCell id="yD9sD2X17rfTI40Z9vV2-16" value="Please show '$$'" style="rounded=0;whiteSpace=wrap;html=1;strokeWidth=1;fontSize=11;align=center;fillColor=#e1d5e7;strokeColor=#9673a6;" vertex="1" parent="yD9sD2X17rfTI40Z9vV2-1">
                    <mxGeometry x="520" y="275" width="90" height="30" as="geometry"/>
                </mxCell>
                <mxCell id="yD9sD2X17rfTI40Z9vV2-17" value="results" style="rounded=0;whiteSpace=wrap;html=1;strokeWidth=1;fontSize=11;align=center;fillColor=#e1d5e7;strokeColor=#9673a6;" vertex="1" parent="yD9sD2X17rfTI40Z9vV2-1">
                    <mxGeometry x="750" y="245" width="90" height="30" as="geometry"/>
                </mxCell>
                <mxCell id="yD9sD2X17rfTI40Z9vV2-18" value="Please show '$$$'" style="rounded=0;whiteSpace=wrap;html=1;strokeWidth=1;fontSize=11;align=center;fillColor=#e1d5e7;strokeColor=#9673a6;" vertex="1" parent="yD9sD2X17rfTI40Z9vV2-1">
                    <mxGeometry x="750" y="275" width="90" height="30" as="geometry"/>
                </mxCell>
            </root>
        </mxGraphModel>
    </diagram>
    <diagram id="tjsiQKVHlEzeO8IbGj4Z" name="14 - nav">
        <mxGraphModel dx="932" dy="437" grid="1" gridSize="10" guides="1" tooltips="1" connect="1" arrows="1" fold="1" page="1" pageScale="1" pageWidth="3300" pageHeight="4681" math="0" shadow="0">
            <root>
                <mxCell id="upR1zeaWF45SWdp8Uzte-0"/>
                <mxCell id="upR1zeaWF45SWdp8Uzte-1" parent="upR1zeaWF45SWdp8Uzte-0"/>
                <mxCell id="upR1zeaWF45SWdp8Uzte-4" style="edgeStyle=orthogonalEdgeStyle;rounded=0;orthogonalLoop=1;jettySize=auto;html=1;exitX=1;exitY=0.25;exitDx=0;exitDy=0;fontSize=23;" edge="1" parent="upR1zeaWF45SWdp8Uzte-1" source="upR1zeaWF45SWdp8Uzte-2" target="upR1zeaWF45SWdp8Uzte-3">
                    <mxGeometry relative="1" as="geometry"/>
                </mxCell>
                <mxCell id="upR1zeaWF45SWdp8Uzte-6" style="edgeStyle=orthogonalEdgeStyle;rounded=0;orthogonalLoop=1;jettySize=auto;html=1;exitX=1;exitY=0.75;exitDx=0;exitDy=0;fontSize=23;" edge="1" parent="upR1zeaWF45SWdp8Uzte-1" source="upR1zeaWF45SWdp8Uzte-2" target="upR1zeaWF45SWdp8Uzte-5">
                    <mxGeometry relative="1" as="geometry"/>
                </mxCell>
                <mxCell id="upR1zeaWF45SWdp8Uzte-18" style="edgeStyle=orthogonalEdgeStyle;rounded=0;orthogonalLoop=1;jettySize=auto;html=1;exitX=0.5;exitY=0;exitDx=0;exitDy=0;entryX=0.5;entryY=0;entryDx=0;entryDy=0;fontSize=15;" edge="1" parent="upR1zeaWF45SWdp8Uzte-1" source="upR1zeaWF45SWdp8Uzte-2" target="upR1zeaWF45SWdp8Uzte-9">
                    <mxGeometry relative="1" as="geometry">
                        <Array as="points">
                            <mxPoint x="330" y="190"/>
                            <mxPoint x="1015" y="190"/>
                        </Array>
                    </mxGeometry>
                </mxCell>
                <mxCell id="upR1zeaWF45SWdp8Uzte-2" value="React Navigation Stack Navigator" style="rounded=0;whiteSpace=wrap;html=1;fontSize=23;fillColor=#dae8fc;strokeColor=#6c8ebf;" vertex="1" parent="upR1zeaWF45SWdp8Uzte-1">
                    <mxGeometry x="260" y="230" width="140" height="190" as="geometry"/>
                </mxCell>
                <mxCell id="upR1zeaWF45SWdp8Uzte-10" style="edgeStyle=orthogonalEdgeStyle;rounded=0;orthogonalLoop=1;jettySize=auto;html=1;exitX=1;exitY=0.5;exitDx=0;exitDy=0;fontSize=15;" edge="1" parent="upR1zeaWF45SWdp8Uzte-1" source="upR1zeaWF45SWdp8Uzte-3" target="upR1zeaWF45SWdp8Uzte-9">
                    <mxGeometry relative="1" as="geometry"/>
                </mxCell>
                <mxCell id="upR1zeaWF45SWdp8Uzte-3" value="SearchScreen" style="rounded=0;whiteSpace=wrap;html=1;fontSize=23;" vertex="1" parent="upR1zeaWF45SWdp8Uzte-1">
                    <mxGeometry x="580" y="245" width="210" height="65" as="geometry"/>
                </mxCell>
                <mxCell id="upR1zeaWF45SWdp8Uzte-5" value="ResultShowScreen" style="rounded=0;whiteSpace=wrap;html=1;fontSize=23;" vertex="1" parent="upR1zeaWF45SWdp8Uzte-1">
                    <mxGeometry x="580" y="340" width="210" height="65" as="geometry"/>
                </mxCell>
                <mxCell id="upR1zeaWF45SWdp8Uzte-7" value="navigation" style="rounded=0;whiteSpace=wrap;html=1;fontSize=15;fillColor=#e1d5e7;strokeColor=#9673a6;" vertex="1" parent="upR1zeaWF45SWdp8Uzte-1">
                    <mxGeometry x="440" y="250" width="90" height="28" as="geometry"/>
                </mxCell>
                <mxCell id="upR1zeaWF45SWdp8Uzte-8" value="navigation" style="rounded=0;whiteSpace=wrap;html=1;fontSize=15;fillColor=#e1d5e7;strokeColor=#9673a6;" vertex="1" parent="upR1zeaWF45SWdp8Uzte-1">
                    <mxGeometry x="440" y="345" width="90" height="28" as="geometry"/>
                </mxCell>
                <mxCell id="upR1zeaWF45SWdp8Uzte-9" value="ResultsList" style="rounded=0;whiteSpace=wrap;html=1;fontSize=23;" vertex="1" parent="upR1zeaWF45SWdp8Uzte-1">
                    <mxGeometry x="930" y="245" width="170" height="65" as="geometry"/>
                </mxCell>
                <mxCell id="upR1zeaWF45SWdp8Uzte-11" value="navigation" style="rounded=0;whiteSpace=wrap;html=1;fontSize=15;fillColor=#e1d5e7;strokeColor=#9673a6;" vertex="1" parent="upR1zeaWF45SWdp8Uzte-1">
                    <mxGeometry x="660" y="162" width="90" height="28" as="geometry"/>
                </mxCell>
            </root>
        </mxGraphModel>
    </diagram>
    <diagram name="15 - rteq" id="ne-uKxPb5EdeEy0Zdm_D">
        <mxGraphModel dx="932" dy="437" grid="1" gridSize="10" guides="1" tooltips="1" connect="1" arrows="1" fold="1" page="1" pageScale="1" pageWidth="3300" pageHeight="4681" math="0" shadow="0">
            <root>
                <mxCell id="aQSgFeXiyIraTWTHTmHN-0"/>
                <mxCell id="aQSgFeXiyIraTWTHTmHN-1" parent="aQSgFeXiyIraTWTHTmHN-0"/>
                <mxCell id="aQSgFeXiyIraTWTHTmHN-2" style="edgeStyle=orthogonalEdgeStyle;rounded=0;orthogonalLoop=1;jettySize=auto;html=1;exitX=1;exitY=0.25;exitDx=0;exitDy=0;fontSize=23;" edge="1" parent="aQSgFeXiyIraTWTHTmHN-1" source="aQSgFeXiyIraTWTHTmHN-5" target="aQSgFeXiyIraTWTHTmHN-7">
                    <mxGeometry relative="1" as="geometry"/>
                </mxCell>
                <mxCell id="aQSgFeXiyIraTWTHTmHN-3" style="edgeStyle=orthogonalEdgeStyle;rounded=0;orthogonalLoop=1;jettySize=auto;html=1;exitX=1;exitY=0.75;exitDx=0;exitDy=0;fontSize=23;" edge="1" parent="aQSgFeXiyIraTWTHTmHN-1" source="aQSgFeXiyIraTWTHTmHN-5" target="aQSgFeXiyIraTWTHTmHN-8">
                    <mxGeometry relative="1" as="geometry"/>
                </mxCell>
                <mxCell id="aQSgFeXiyIraTWTHTmHN-4" style="edgeStyle=orthogonalEdgeStyle;rounded=0;orthogonalLoop=1;jettySize=auto;html=1;exitX=0.5;exitY=0;exitDx=0;exitDy=0;entryX=0.5;entryY=0;entryDx=0;entryDy=0;fontSize=15;" edge="1" parent="aQSgFeXiyIraTWTHTmHN-1" source="aQSgFeXiyIraTWTHTmHN-5" target="aQSgFeXiyIraTWTHTmHN-11">
                    <mxGeometry relative="1" as="geometry">
                        <Array as="points">
                            <mxPoint x="330" y="190"/>
                            <mxPoint x="1015" y="190"/>
                        </Array>
                    </mxGeometry>
                </mxCell>
                <mxCell id="aQSgFeXiyIraTWTHTmHN-5" value="React Navigation Stack Navigator" style="rounded=0;whiteSpace=wrap;html=1;fontSize=23;fillColor=#dae8fc;strokeColor=#6c8ebf;" vertex="1" parent="aQSgFeXiyIraTWTHTmHN-1">
                    <mxGeometry x="260" y="230" width="140" height="190" as="geometry"/>
                </mxCell>
                <mxCell id="aQSgFeXiyIraTWTHTmHN-6" style="edgeStyle=orthogonalEdgeStyle;rounded=0;orthogonalLoop=1;jettySize=auto;html=1;exitX=1;exitY=0.5;exitDx=0;exitDy=0;fontSize=15;" edge="1" parent="aQSgFeXiyIraTWTHTmHN-1" source="aQSgFeXiyIraTWTHTmHN-7" target="aQSgFeXiyIraTWTHTmHN-11">
                    <mxGeometry relative="1" as="geometry"/>
                </mxCell>
                <mxCell id="aQSgFeXiyIraTWTHTmHN-7" value="SearchScreen" style="rounded=0;whiteSpace=wrap;html=1;fontSize=23;" vertex="1" parent="aQSgFeXiyIraTWTHTmHN-1">
                    <mxGeometry x="580" y="245" width="210" height="65" as="geometry"/>
                </mxCell>
                <mxCell id="aQSgFeXiyIraTWTHTmHN-8" value="ResultShowScreen" style="rounded=0;whiteSpace=wrap;html=1;fontSize=23;" vertex="1" parent="aQSgFeXiyIraTWTHTmHN-1">
                    <mxGeometry x="580" y="340" width="210" height="65" as="geometry"/>
                </mxCell>
                <mxCell id="aQSgFeXiyIraTWTHTmHN-9" value="navigation" style="rounded=0;whiteSpace=wrap;html=1;fontSize=15;fillColor=#e1d5e7;strokeColor=#9673a6;" vertex="1" parent="aQSgFeXiyIraTWTHTmHN-1">
                    <mxGeometry x="440" y="250" width="90" height="28" as="geometry"/>
                </mxCell>
                <mxCell id="aQSgFeXiyIraTWTHTmHN-10" value="navigation" style="rounded=0;whiteSpace=wrap;html=1;fontSize=15;fillColor=#e1d5e7;strokeColor=#9673a6;" vertex="1" parent="aQSgFeXiyIraTWTHTmHN-1">
                    <mxGeometry x="440" y="345" width="90" height="28" as="geometry"/>
                </mxCell>
                <mxCell id="aQSgFeXiyIraTWTHTmHN-15" style="edgeStyle=orthogonalEdgeStyle;rounded=0;orthogonalLoop=1;jettySize=auto;html=1;exitX=0.25;exitY=1;exitDx=0;exitDy=0;entryX=1;entryY=0.5;entryDx=0;entryDy=0;fontSize=15;" edge="1" parent="aQSgFeXiyIraTWTHTmHN-1" source="aQSgFeXiyIraTWTHTmHN-11" target="aQSgFeXiyIraTWTHTmHN-8">
                    <mxGeometry relative="1" as="geometry"/>
                </mxCell>
                <mxCell id="aQSgFeXiyIraTWTHTmHN-11" value="ResultsList" style="rounded=0;whiteSpace=wrap;html=1;fontSize=23;" vertex="1" parent="aQSgFeXiyIraTWTHTmHN-1">
                    <mxGeometry x="930" y="245" width="170" height="65" as="geometry"/>
                </mxCell>
                <mxCell id="aQSgFeXiyIraTWTHTmHN-12" value="navigation" style="rounded=0;whiteSpace=wrap;html=1;fontSize=15;fillColor=#e1d5e7;strokeColor=#9673a6;" vertex="1" parent="aQSgFeXiyIraTWTHTmHN-1">
                    <mxGeometry x="660" y="162" width="90" height="28" as="geometry"/>
                </mxCell>
                <mxCell id="aQSgFeXiyIraTWTHTmHN-16" value="Here's the id of hte business to show" style="rounded=0;whiteSpace=wrap;html=1;fontSize=15;fillColor=#e1d5e7;strokeColor=#9673a6;" vertex="1" parent="aQSgFeXiyIraTWTHTmHN-1">
                    <mxGeometry x="850" y="373" width="120" height="67" as="geometry"/>
                </mxCell>
            </root>
        </mxGraphModel>
    </diagram>
</mxfile>